<svg width="46" height="46" viewBox="0 0 46 46" fill="none" xmlns="http://www.w3.org/2000/svg">
<path d="M31.8626 18.0642C32.0786 17.8483 32.1999 17.5554 32.1999 17.25C32.1999 16.9446 32.0786 16.6517 31.8626 16.4358C31.6467 16.2199 31.3538 16.0985 31.0484 16.0985C30.743 16.0985 30.4502 16.2199 30.2342 16.4358L21.8484 24.8239L18.0626 21.0358C17.9557 20.9289 17.8288 20.8441 17.6891 20.7862C17.5494 20.7283 17.3996 20.6985 17.2484 20.6985C17.0972 20.6985 16.9475 20.7283 16.8078 20.7862C16.6681 20.8441 16.5412 20.9289 16.4342 21.0358C16.3273 21.1427 16.2425 21.2696 16.1846 21.4093C16.1268 21.549 16.097 21.6988 16.097 21.85C16.097 22.0012 16.1268 22.1509 16.1846 22.2906C16.2425 22.4303 16.3273 22.5573 16.4342 22.6642L21.0342 27.2642C21.1411 27.3713 21.268 27.4563 21.4077 27.5142C21.5474 27.5722 21.6972 27.602 21.8484 27.602C21.9997 27.602 22.1495 27.5722 22.2892 27.5142C22.4289 27.4563 22.5558 27.3713 22.6626 27.2642L31.8626 18.0642ZM23.6355 4.79319C23.4468 4.66759 23.2251 4.60059 22.9984 4.60059C22.7717 4.60059 22.5501 4.66759 22.3613 4.79319C18.0192 7.72039 13.0696 9.62428 7.88514 10.3615C7.61121 10.4008 7.36064 10.5375 7.17939 10.7467C6.99815 10.9558 6.8984 11.2233 6.89844 11.5V21.85C6.89844 30.7993 12.2045 37.329 22.5844 41.3241C22.8509 41.4269 23.146 41.4269 23.4124 41.3241C33.7923 37.329 39.0984 30.797 39.0984 21.85V11.5C39.0984 11.2229 38.9983 10.9552 38.8166 10.746C38.6349 10.5368 38.3838 10.4003 38.1094 10.3615C32.9258 9.62394 27.9769 7.72007 23.6355 4.79319ZM9.19844 12.4844C13.7543 11.711 18.1238 10.0865 22.0784 7.69579L22.9984 7.12309L23.9184 7.69579C27.873 10.0865 32.2425 11.711 36.7984 12.4844V21.85C36.7984 29.6516 32.272 35.3349 22.9984 39.0149C13.7248 35.3349 9.19844 29.6539 9.19844 21.85V12.4844Z" fill="#182F3B"/>
</svg>
