<svg width="36" height="36" viewBox="0 0 36 36" fill="none" xmlns="http://www.w3.org/2000/svg">
<path d="M2.25 8.568V32.3663C2.25 32.7698 2.37975 33.1013 2.63925 33.3608C2.89875 33.6203 3.231 33.75 3.636 33.75H32.3663C32.7698 33.75 33.1013 33.6203 33.3608 33.3608C33.6203 33.1013 33.75 32.7698 33.75 32.3663V8.568H24.75V23.841L18 20.466L11.25 23.841V8.568H2.25ZM3.636 36C2.628 36 1.77 35.646 1.062 34.938C0.354 34.23 0 33.3728 0 32.3663V7.8435C0 7.4055 0.0697499 6.993 0.20925 6.606C0.34875 6.219 0.55875 5.86275 0.83925 5.53725L4.34475 1.32975C4.67025 0.89025 5.0775 0.55875 5.5665 0.33525C6.0555 0.11175 6.57975 0 7.13925 0H28.7753C29.3333 0 29.8643 0.11175 30.3683 0.33525C30.8723 0.55875 31.287 0.8895 31.6125 1.3275L35.1608 5.625C35.4413 5.9505 35.6513 6.31425 35.7908 6.71625C35.9303 7.11675 36 7.53675 36 7.97625V32.3663C36 33.3713 35.646 34.2285 34.938 34.938C34.23 35.646 33.3728 36 32.3663 36H3.636ZM3.105 6.318H32.85L29.8575 2.7225C29.712 2.5785 29.5455 2.46375 29.358 2.37825C29.1705 2.29275 28.9755 2.25 28.773 2.25H7.182C6.981 2.25 6.786 2.2935 6.597 2.3805C6.408 2.4675 6.243 2.583 6.102 2.727L3.105 6.318ZM13.4978 8.568V20.1623L17.9978 17.9123L22.4978 20.1623V8.57025L13.4978 8.568Z" fill="#182F3B"/>
</svg>
